# xmcd
#
# Track frame offsets:
# 150
# 32382
# 59476
# 87587
# 117663
# 143282
# 171627
# 204702
# 225692
# 253360
# 277135
# 306844
#
# Disc length: 4382 seconds
#
# Revision: 0
# Processed by: cddbd v1.4PL0 Copyright (c) Steve Scherf et al.
# Submitted via: Audion 3.0.2 (http://www.panic.com/audion/)
#
DISCID=b9111c0c
DTITLE=Deep Dish - GUO21 [CD 2)
DYEAR=1900
DGENRE=
TTITLE0=1a
TTITLE1=2a
TTITLE2=3a
TTITLE3=4a
TTITLE4=5a
TTITLE5=6a
TTITLE6=7a
TTITLE7=8a
TTITLE8=9a
TTITLE9=10a
TTITLE10=11a
TTITLE11=12a
EXTD=
EXTT0=
EXTT1=
EXTT2=
EXTT3=
EXTT4=
EXTT5=
EXTT6=
EXTT7=
EXTT8=
EXTT9=
EXTT10=
EXTT11=
PLAYORDER=
